<svg viewBox="0 0 32 32" fill="none" xmlns="http://www.w3.org/2000/svg">
<path d="M17.1098 29.0697C21.2778 28.2343 26.6667 25.236 26.6667 17.4829C26.6667 10.4274 21.5022 5.72921 17.7887 3.57043C16.9647 3.0914 16 3.72138 16 4.67452V7.1125C16 9.03498 15.1917 12.5441 12.9458 14.0037C11.7991 14.7489 10.5607 13.6336 10.4213 12.2731L10.3069 11.156C10.1739 9.85735 8.85122 9.06897 7.81327 9.86077C5.94862 11.2832 4 13.7741 4 17.4829C4 26.9644 11.0519 29.3347 14.5778 29.3347C14.7829 29.3347 14.9984 29.3286 15.2228 29.3157C15.8173 29.2407 15.2228 29.448 17.1098 29.0697Z" fill="#1DDE6A" fill-opacity="0.8"/>
<path d="M10.666 24.5943C10.666 28.0873 13.4811 29.1675 15.2221 29.3163C15.8167 29.2414 15.2221 29.4486 17.1092 29.0704C18.4941 28.581 19.9993 27.3249 19.9993 24.5943C19.9993 22.864 18.9079 21.7964 18.0528 21.2967C17.7912 21.1438 17.4874 21.3363 17.464 21.6384C17.3899 22.5959 16.4705 23.3585 15.8442 22.6305C15.2907 21.9871 15.0582 21.0473 15.0582 20.4461V19.6605C15.0582 19.1869 14.5814 18.8731 14.174 19.1147C12.6594 20.0133 10.666 21.8618 10.666 24.5943Z" fill="white"/>
</svg>
