<svg viewBox="0 0 20 20" fill="none" xmlns="http://www.w3.org/2000/svg">
<path d="M15.7453 3.61999C14.5986 3.09556 13.3808 2.71333 12.1098 2.5C11.9497 2.77556 11.7719 3.14888 11.6475 3.44222C10.2955 3.24666 8.95326 3.24666 7.61993 3.44222C7.49548 3.14888 7.30881 2.77556 7.15769 2.5C5.87771 2.71333 4.65993 3.09556 3.52127 3.61999C1.21906 7.01554 0.596829 10.3311 0.907939 13.6022C2.43682 14.7132 3.91239 15.3888 5.36217 15.8333C5.71772 15.3533 6.03773 14.8377 6.31329 14.2955C5.78884 14.1 5.29106 13.86 4.81106 13.5755C4.93551 13.4867 5.05996 13.3889 5.17551 13.2911C8.07328 14.6156 11.2119 14.6156 14.0742 13.2911C14.1986 13.3889 14.3142 13.4867 14.4386 13.5755C13.9586 13.86 13.4608 14.1 12.9363 14.2955C13.2119 14.8377 13.5319 15.3533 13.8875 15.8333C15.3363 15.3888 16.8208 14.7132 18.3417 13.6022C18.7239 9.81558 17.7363 6.52668 15.7453 3.61999ZM6.71328 11.5844C5.84216 11.5844 5.13105 10.7933 5.13105 9.82442C5.13105 8.85558 5.82438 8.06442 6.71328 8.06442C7.59326 8.06442 8.31324 8.85558 8.29546 9.82442C8.29546 10.7933 7.59326 11.5844 6.71328 11.5844ZM12.5542 11.5844C11.683 11.5844 10.971 10.7933 10.971 9.82442C10.971 8.85558 11.6653 8.06442 12.5542 8.06442C13.4342 8.06442 14.1542 8.85558 14.1363 9.82442C14.1363 10.7933 13.4431 11.5844 12.5542 11.5844Z" stroke="currentColor" stroke-width="1.5" stroke-linejoin="round"/>
</svg>
