<svg viewBox="0 0 20 20" fill="none" xmlns="http://www.w3.org/2000/svg">
<path d="M3.20377 6.60189C2.26541 5.66352 2.26541 4.14214 3.20377 3.20377C4.14214 2.26541 5.66352 2.26541 6.60189 3.20377L16.7962 13.3981C17.7346 14.3365 17.7346 15.8579 16.7962 16.7962C15.8579 17.7346 14.3365 17.7346 13.3981 16.7962L3.20377 6.60189Z" stroke="currentColor" stroke-width="1.5"/>
<path d="M5 8.33325L8.33333 4.99992" stroke="currentColor" stroke-width="1.5" stroke-linecap="round"/>
<path d="M13.4167 1.92274C13.5508 1.58142 14.032 1.58142 14.1662 1.92274L14.5248 2.83548C14.5658 2.93968 14.648 3.02217 14.7518 3.06327L15.6611 3.42325C16.0012 3.55786 16.0012 4.04092 15.6611 4.17553L14.7518 4.53551C14.648 4.57661 14.5658 4.6591 14.5248 4.76331L14.1662 5.67604C14.032 6.01736 13.5508 6.01737 13.4167 5.67604L13.058 4.76331C13.0171 4.6591 12.9349 4.57661 12.831 4.53551L11.9217 4.17553C11.5816 4.04092 11.5816 3.55786 11.9217 3.42325L12.831 3.06327C12.9349 3.02217 13.0171 2.93968 13.058 2.83548L13.4167 1.92274Z" stroke="currentColor"/>
<path d="M16.6393 7.6078C16.7734 7.26648 17.2547 7.26648 17.3888 7.6078L17.5196 7.94059C17.5605 8.04479 17.6427 8.12728 17.7465 8.16838L18.0781 8.29963C18.4181 8.43425 18.4181 8.9173 18.0781 9.05191L17.7465 9.18316C17.6427 9.22426 17.5605 9.30675 17.5196 9.41096L17.3888 9.74375C17.2547 10.0851 16.7734 10.0851 16.6393 9.74375L16.5085 9.41096C16.4676 9.30675 16.3854 9.22426 16.2816 9.18316L15.95 9.05191C15.6099 8.9173 15.6099 8.43425 15.95 8.29963L16.2816 8.16838C16.3854 8.12728 16.4676 8.04479 16.5085 7.94059L16.6393 7.6078Z" stroke="currentColor"/>
<path d="M4.27771 12.756C4.41182 12.4147 4.8931 12.4147 5.02722 12.756L5.15798 13.0888C5.19893 13.193 5.28112 13.2755 5.38494 13.3166L5.7165 13.4478C6.05656 13.5824 6.05656 14.0655 5.7165 14.2001L5.38494 14.3314C5.28112 14.3725 5.19893 14.4549 5.15798 14.5592L5.02722 14.8919C4.8931 15.2333 4.41182 15.2333 4.27771 14.8919L4.14694 14.5592C4.10599 14.4549 4.02381 14.3725 3.91998 14.3314L3.58842 14.2001C3.24836 14.0655 3.24836 13.5824 3.58842 13.4478L3.91998 13.3166C4.02381 13.2755 4.10599 13.193 4.14694 13.0888L4.27771 12.756Z" stroke="currentColor"/>
</svg>
