<svg viewBox="0 0 20 20" fill="none" xmlns="http://www.w3.org/2000/svg">
<g clip-path="url(#clip0_1154_911)">
<path d="M18.3333 9.99996C18.3333 13.9283 18.3333 15.8925 17.1129 17.1129C15.8925 18.3333 13.9283 18.3333 9.99996 18.3333C6.07159 18.3333 4.1074 18.3333 2.88701 17.1129C1.66663 15.8925 1.66663 13.9283 1.66663 9.99996C1.66663 6.07159 1.66663 4.1074 2.88701 2.88701C4.1074 1.66663 6.07159 1.66663 9.99996 1.66663" stroke="currentColor" stroke-width="1.5" stroke-linecap="round"/>
<path d="M7.54926 9.4167C7.68076 9.08327 8.15265 9.08327 8.28415 9.4167L8.63581 10.3083C8.67596 10.4101 8.75654 10.4907 8.85833 10.5309L9.74997 10.8825C10.0834 11.014 10.0834 11.4859 9.74997 11.6174L8.85833 11.9691C8.75654 12.0092 8.67596 12.0898 8.63581 12.1916L8.28415 13.0832C8.15265 13.4166 7.68076 13.4167 7.54926 13.0832L7.19761 12.1916C7.15746 12.0898 7.07688 12.0092 6.97508 11.9691L6.08345 11.6174C5.75002 11.4859 5.75002 11.014 6.08345 10.8825L6.97508 10.5309C7.07688 10.4907 7.15746 10.4101 7.19761 10.3083L7.54926 9.4167Z" stroke="currentColor"/>
<path d="M12.4478 2.55282C12.9138 1.37123 14.5861 1.37123 15.0521 2.55282L15.5065 3.70488C15.6487 4.06562 15.9343 4.35118 16.295 4.49346L17.4471 4.94782C18.6287 5.41384 18.6287 7.08608 17.4471 7.5521L16.295 8.00646C15.9343 8.14874 15.6487 8.43429 15.5065 8.79504L15.0521 9.9471C14.5861 11.1287 12.9138 11.1287 12.4478 9.9471L11.9935 8.79504C11.8512 8.43429 11.5656 8.14874 11.2049 8.00646L10.0528 7.5521C8.87123 7.08608 8.87123 5.41384 10.0528 4.94782L11.2049 4.49346C11.5656 4.35118 11.8512 4.06562 11.9935 3.70488L12.4478 2.55282Z" stroke="currentColor" stroke-width="1.5"/>
<path d="M11.7777 13.5894C11.9118 13.248 12.3931 13.248 12.5272 13.5894L12.658 13.9222C12.6989 14.0264 12.7811 14.1088 12.8849 14.1499L13.2165 14.2812C13.5566 14.4158 13.5566 14.8989 13.2165 15.0335L12.8849 15.1647C12.7811 15.2058 12.6989 15.2883 12.658 15.3925L12.5272 15.7253C12.3931 16.0666 11.9118 16.0666 11.7777 15.7253L11.6469 15.3925C11.606 15.2883 11.5238 15.2058 11.42 15.1647L11.0884 15.0335C10.7484 14.8989 10.7484 14.4158 11.0884 14.2812L11.42 14.1499C11.5238 14.1088 11.606 14.0264 11.6469 13.9222L11.7777 13.5894Z" stroke="currentColor"/>
</g>
<defs>
<clipPath id="clip0_1154_911">
<rect width="20" height="20" fill="white"/>
</clipPath>
</defs>
</svg>
