<svg  viewBox="0 0 20 20" fill="none" xmlns="http://www.w3.org/2000/svg">
<path d="M9.20709 1.02832C9.72339 0.875646 10.2738 0.875659 10.7901 1.02832C11.1233 1.12685 11.4068 1.29866 11.6866 1.50781C11.9589 1.71141 12.2696 1.98405 12.6417 2.30957L17.5372 6.59277C17.9186 6.9265 18.2121 7.17641 18.4258 7.49121C18.6043 7.75414 18.7362 8.0455 18.8165 8.35254C18.9127 8.7208 18.9073 9.10666 18.9073 9.61328V18.3311C18.9071 18.7451 18.5714 19.0811 18.1573 19.0811H12.7862V14.251C12.786 12.7105 11.5376 11.4611 9.99713 11.4609C8.45654 11.461 7.20723 12.7104 7.20709 14.251V19.0811H1.8399C1.42582 19.081 1.09008 18.7451 1.0899 18.3311V9.61328C1.0899 9.10774 1.08442 8.72108 1.18072 8.35254C1.26136 8.04405 1.39467 7.75291 1.57232 7.49121C1.78601 7.17658 2.07868 6.92644 2.46002 6.59277L7.35748 2.30761C7.72865 1.98284 8.03874 1.71113 8.3106 1.50781C8.59015 1.2988 8.87398 1.12683 9.20709 1.02832Z" fill="currentColor"/>
</svg>
