<svg viewBox="0 0 20 20" fill="none" xmlns="http://www.w3.org/2000/svg">
<g clip-path="url(#clip0_1154_956)">
<path d="M15.8334 6.66667V5.83333C15.8334 5.05676 15.8334 3.83515 15.7065 3.52886C15.5373 3.12048 15.2129 2.79602 14.8045 2.62687C14.4982 2.5 14.1099 2.5 13.3334 2.5M15.8334 6.66667L16.6667 5.83333M15.8334 6.66667L15 5.83333" stroke="currentColor" stroke-width="1.5" stroke-linecap="round" stroke-linejoin="round"/>
<path d="M4.16671 13.3333V14.1666C4.16671 14.9432 4.16671 16.1648 4.29357 16.4711C4.46273 16.8794 4.78719 17.2039 5.19557 17.3731C5.50185 17.4999 5.89014 17.4999 6.66671 17.4999M4.16671 13.3333L3.33337 14.1666M4.16671 13.3333L5.00004 14.1666" stroke="currentColor" stroke-width="1.5" stroke-linecap="round" stroke-linejoin="round"/>
<path d="M8.33337 13.3333C8.33337 10.9762 8.33337 9.79772 9.06561 9.06549C9.79784 8.33325 10.9764 8.33325 13.3334 8.33325C15.6904 8.33325 16.8689 8.33325 17.6011 9.06549C18.3334 9.79772 18.3334 10.9762 18.3334 13.3333C18.3334 15.6903 18.3334 16.8688 17.6011 17.601C16.8689 18.3333 15.6904 18.3333 13.3334 18.3333C10.9764 18.3333 9.79784 18.3333 9.06561 17.601C8.33337 16.8688 8.33337 15.6903 8.33337 13.3333Z" stroke="currentColor" stroke-width="1.5"/>
<path d="M14.834 13.3333C14.834 13.0166 14.503 12.803 13.841 12.3759C13.1699 11.9429 12.8344 11.7264 12.5842 11.8853C12.334 12.0443 12.334 12.4739 12.334 13.3333C12.334 14.1926 12.334 14.6222 12.5842 14.7812C12.8344 14.9401 13.1699 14.7236 13.841 14.2906C14.503 13.8635 14.834 13.6499 14.834 13.3333Z" stroke="currentColor" stroke-width="1.5" stroke-linecap="round"/>
<path d="M8.33329 11.6523C7.85412 11.6667 7.30338 11.6667 6.66663 11.6667C4.3096 11.6667 3.13109 11.6667 2.39886 10.9345C1.66663 10.2023 1.66663 9.02377 1.66663 6.66675C1.66663 4.30973 1.66663 3.13121 2.39886 2.39898C3.13109 1.66675 4.3096 1.66675 6.66663 1.66675C9.02365 1.66675 10.2022 1.66675 10.9344 2.39898C11.6666 3.13121 11.6666 4.30973 11.6666 6.66675C11.6666 7.33709 11.6666 7.91212 11.6498 8.40866" stroke="currentColor" stroke-width="1.5"/>
<circle cx="8.66663" cy="4.66675" r="1" stroke="currentColor" stroke-width="1.5"/>
<path d="M1.66663 6.92072L2.54242 6.15441C2.99805 5.75573 3.68476 5.7786 4.11287 6.2067L6.25773 8.35157C6.60135 8.69518 7.14225 8.74203 7.53983 8.46262L7.68893 8.35783C8.26105 7.95576 9.03509 8.00234 9.55486 8.47013" stroke="currentColor" stroke-width="1.5" stroke-linecap="round"/>
</g>
<defs>
<clipPath id="clip0_1154_956">
<rect width="20" height="20" fill="white"/>
</clipPath>
</defs>
</svg>
