<svg viewBox="0 0 20 20" fill="none" xmlns="http://www.w3.org/2000/svg">
<g clip-path="url(#clip0_1154_1114)">
<path d="M14.1666 1.66675H5.83329C3.53211 1.66675 1.66663 3.53223 1.66663 5.83341V14.1667C1.66663 16.4679 3.53211 18.3334 5.83329 18.3334H14.1666C16.4678 18.3334 18.3333 16.4679 18.3333 14.1667V5.83341C18.3333 3.53223 16.4678 1.66675 14.1666 1.66675Z" stroke="currentColor" stroke-width="1.5" stroke-linecap="round" stroke-linejoin="round"/>
<path d="M13.3331 9.47525C13.436 10.1688 13.3175 10.8771 12.9946 11.4994C12.6717 12.1218 12.1608 12.6264 11.5345 12.9417C10.9082 13.2568 10.1985 13.3666 9.50629 13.2552C8.81404 13.1438 8.1746 12.817 7.67883 12.3213C7.18306 11.8254 6.85624 11.186 6.74485 10.4938C6.63347 9.80158 6.74318 9.09183 7.0584 8.46558C7.37362 7.8393 7.87828 7.32837 8.50063 7.00545C9.12296 6.68253 9.83129 6.56408 10.5248 6.66692C11.2322 6.77183 11.8872 7.10147 12.3929 7.60718C12.8985 8.11288 13.2282 8.76783 13.3331 9.47525Z" stroke="currentColor" stroke-width="1.5" stroke-linecap="round" stroke-linejoin="round"/>
<path d="M14.5834 5.41675H14.5917" stroke="currentColor" stroke-width="2" stroke-linecap="round" stroke-linejoin="round"/>
</g>
<defs>
<clipPath id="clip0_1154_1114">
<rect width="20" height="20" fill="currentColor"/>
</clipPath>
</defs>
</svg>
