<svg viewBox="0 0 20 20" fill="none" xmlns="http://www.w3.org/2000/svg">
<g clip-path="url(#clip0_1154_918)">
<path d="M15 8.33325L10.8334 8.33325" stroke="currentColor" stroke-width="1.5" stroke-linecap="round"/>
<path d="M8.33337 2.5H13.75C14.1371 2.5 14.3306 2.5 14.493 2.52139C15.6149 2.66908 16.4976 3.55185 16.6453 4.67368C16.6667 4.83614 16.6667 5.02965 16.6667 5.41667" stroke="currentColor" stroke-width="1.5"/>
<path d="M1.66663 5.79154C1.66663 5.05609 1.66663 4.68837 1.72442 4.38207C1.97883 3.03367 3.03355 1.97895 4.38195 1.72454C4.68825 1.66675 5.05597 1.66675 5.79142 1.66675C6.11365 1.66675 6.27476 1.66675 6.4296 1.68123C7.09717 1.74365 7.73039 2.00594 8.24658 2.43384C8.3663 2.53309 8.48023 2.64702 8.70808 2.87487L9.16663 3.33342C9.84644 4.01323 10.1864 4.35314 10.5934 4.5796C10.817 4.70401 11.0542 4.80225 11.3003 4.87239C11.7482 5.00008 12.2289 5.00008 13.1903 5.00008H13.5017C15.6953 5.00008 16.7922 5.00008 17.5051 5.6413C17.5707 5.70028 17.6331 5.7627 17.6921 5.82827C18.3333 6.54121 18.3333 7.63803 18.3333 9.83167V11.6667C18.3333 14.8094 18.3333 16.3808 17.357 17.3571C16.3807 18.3334 14.8093 18.3334 11.6666 18.3334H8.33329C5.1906 18.3334 3.61925 18.3334 2.64294 17.3571C1.66663 16.3808 1.66663 14.8094 1.66663 11.6667V5.79154Z" stroke="currentColor" stroke-width="1.5"/>
</g>
<defs>
<clipPath id="clip0_1154_918">
<rect width="20" height="20" fill="white"/>
</clipPath>
</defs>
</svg>
