<svg width="130" height="16" viewBox="0 0 130 16" fill="none" xmlns="http://www.w3.org/2000/svg">
<g clip-path="url(#clip10_1154_812_332323)">
<path d="M130 15.7135H127.202V0.280029H130V15.7135Z" fill="#1DDE6A"/>
<path d="M123.922 15.7135H121.124V11.9251H111.287V15.7135H108.489V7.99678C108.489 6.8703 108.682 5.83351 109.07 4.8864C109.457 3.9393 109.995 3.12493 110.684 2.4433C111.373 1.76167 112.187 1.23072 113.127 0.850445C114.067 0.470168 115.093 0.280029 116.205 0.280029H122.512C122.706 0.280029 122.889 0.315904 123.061 0.387655C123.233 0.459405 123.384 0.559856 123.513 0.689006C123.642 0.818157 123.743 0.968833 123.814 1.14103C123.886 1.31323 123.922 1.4962 123.922 1.68992V15.7135ZM111.287 9.12685H121.124V3.07829H116.205C116.119 3.07829 115.936 3.09264 115.656 3.12134C115.384 3.14287 115.064 3.20386 114.699 3.30431C114.34 3.40476 113.959 3.55902 113.558 3.7671C113.156 3.97517 112.786 4.26217 112.449 4.6281C112.112 4.99403 111.832 5.45323 111.61 6.00571C111.394 6.55101 111.287 7.2147 111.287 7.99678V9.12685Z" fill="#1DDE6A"/>
<path d="M98.9062 11.7846C98.9062 12.2653 98.8452 12.6994 98.7233 13.0869C98.6013 13.4671 98.4399 13.8044 98.239 14.0985C98.0381 14.3856 97.8049 14.6331 97.5394 14.8412C97.2739 15.0421 96.9941 15.2071 96.6999 15.3362C96.4129 15.4654 96.1187 15.5623 95.8174 15.6268C95.5232 15.6842 95.2434 15.7129 94.9779 15.7129H89.9303C89.5428 15.7129 89.1195 15.6448 88.6603 15.5084C88.2011 15.3721 87.7742 15.1497 87.3795 14.8412C86.9921 14.5255 86.6656 14.1201 86.4001 13.625C86.1418 13.1227 86.0127 12.5093 86.0127 11.7846V7.99618C86.0127 7.27868 86.1418 6.67239 86.4001 6.17731C86.6656 5.67506 86.9921 5.26967 87.3795 4.96114C87.7742 4.64544 88.2011 4.41943 88.6603 4.2831C89.1195 4.14678 89.5428 4.07861 89.9303 4.07861H94.9779C95.6954 4.07861 96.3053 4.20776 96.8075 4.46607C97.3098 4.72437 97.7152 5.05083 98.0237 5.44546C98.3322 5.83291 98.5547 6.25624 98.691 6.71544C98.8345 7.17464 98.9062 7.60156 98.9062 7.99618V11.7846ZM96.108 8.01771C96.108 7.63026 96.0111 7.34325 95.8174 7.1567C95.6237 6.97015 95.3438 6.87688 94.9779 6.87688H89.9518C89.5787 6.87688 89.2953 6.97374 89.1015 7.16747C88.9078 7.35402 88.811 7.63026 88.811 7.99618V11.7846C88.811 12.1505 88.9078 12.4304 89.1015 12.6241C89.2953 12.8178 89.5787 12.9147 89.9518 12.9147H94.9779C95.3582 12.9147 95.6416 12.8178 95.8281 12.6241C96.0147 12.4304 96.108 12.1505 96.108 11.7846V8.01771Z" fill="#1DDE6A"/>
<path d="M84.4519 6.87747H79.5657V15.7135H76.7352V6.87747H73.0974V4.07921H76.7352V0.280029H79.5657V4.07921H84.4519V6.87747Z" fill="#1DDE6A"/>
<path d="M71.7641 15.7129H68.9659V9.2554C68.9659 8.88947 68.9013 8.56301 68.7722 8.27601C68.6502 7.98183 68.4816 7.73071 68.2663 7.52263C68.0511 7.31455 67.7963 7.1567 67.5022 7.04908C67.2152 6.93428 66.9031 6.87688 66.5658 6.87688H61.6689V15.7129H58.8706V5.46698C58.8706 5.27326 58.9065 5.09388 58.9782 4.92885C59.05 4.75665 59.1504 4.60957 59.2796 4.48759C59.4087 4.35844 59.5594 4.25799 59.7316 4.18624C59.9038 4.11449 60.0868 4.07861 60.2805 4.07861H66.5874C66.9389 4.07861 67.3084 4.11808 67.6959 4.197C68.0905 4.27593 68.478 4.40508 68.8583 4.58445C69.2457 4.75665 69.6116 4.97908 69.956 5.25173C70.3076 5.51721 70.6161 5.84367 70.8816 6.23112C71.1543 6.6114 71.3695 7.05267 71.5274 7.55492C71.6852 8.05717 71.7641 8.624 71.7641 9.2554V15.7129Z" fill="#1DDE6A"/>
<path d="M56.9896 7.93161C56.9896 8.31906 56.9214 8.7388 56.7851 9.19083C56.6488 9.63568 56.4263 10.0518 56.1178 10.4393C55.8165 10.8196 55.4183 11.1388 54.9232 11.3971C54.4353 11.6555 53.8397 11.7846 53.1366 11.7846H48.089V9.12625H53.1366C53.5169 9.12625 53.811 9.01145 54.0191 8.78185C54.2272 8.54507 54.3312 8.25448 54.3312 7.91008C54.3312 7.54416 54.2128 7.25715 53.9761 7.04908C53.7465 6.841 53.4666 6.73696 53.1366 6.73696H48.089C47.7087 6.73696 47.4145 6.85535 47.2064 7.09213C46.9984 7.32173 46.8943 7.60873 46.8943 7.95313V11.8599C46.8943 12.233 47.0091 12.5236 47.2387 12.7317C47.4755 12.9398 47.7661 13.0438 48.1105 13.0438H53.1366V15.7129H48.089C47.7015 15.7129 47.2818 15.6448 46.8297 15.5084C46.3849 15.3721 45.9687 15.1533 45.5813 14.8519C45.201 14.5434 44.8817 14.1452 44.6234 13.6573C44.3651 13.1622 44.236 12.5631 44.236 11.8599V7.93161C44.236 7.54416 44.3041 7.128 44.4405 6.68315C44.5768 6.23112 44.7956 5.81497 45.097 5.43469C45.4055 5.04724 45.8037 4.72437 46.2916 4.46607C46.7867 4.20776 47.3858 4.07861 48.089 4.07861H53.1366C53.524 4.07861 53.9402 4.14678 54.385 4.2831C54.8371 4.41943 55.2532 4.64185 55.6335 4.95038C56.021 5.25173 56.3438 5.64995 56.6021 6.14502C56.8604 6.63293 56.9896 7.22845 56.9896 7.93161Z" fill="#1DDE6A"/>
<path d="M42.6622 6.87688H36.3661C35.9858 6.87688 35.6988 6.97374 35.5051 7.16747C35.3114 7.35402 35.2145 7.63026 35.2145 7.99618V15.7129H32.4163V7.99618C32.4163 7.51546 32.4772 7.08495 32.5992 6.70468C32.7212 6.3244 32.8826 5.99076 33.0835 5.70376C33.2916 5.40958 33.5284 5.16204 33.7939 4.96114C34.0593 4.75307 34.3356 4.58445 34.6226 4.4553C34.9168 4.32615 35.2109 4.23288 35.5051 4.17548C35.8065 4.1109 36.0863 4.07861 36.3446 4.07861H42.6622V6.87688Z" fill="#1DDE6A"/>
<path d="M30.0913 11.7846C30.0913 12.2653 30.0303 12.6994 29.9083 13.0869C29.7864 13.4671 29.6249 13.8044 29.424 14.0985C29.2231 14.3856 28.9899 14.6331 28.7244 14.8412C28.459 15.0421 28.1791 15.2071 27.885 15.3362C27.598 15.4654 27.3038 15.5623 27.0024 15.6268C26.7083 15.6842 26.4284 15.7129 26.163 15.7129H21.1153C20.7279 15.7129 20.3045 15.6448 19.8453 15.5084C19.3861 15.3721 18.9592 15.1497 18.5646 14.8412C18.1771 14.5255 17.8507 14.1201 17.5852 13.625C17.3269 13.1227 17.1978 12.5093 17.1978 11.7846V7.99618C17.1978 7.27868 17.3269 6.67239 17.5852 6.17731C17.8507 5.67506 18.1771 5.26967 18.5646 4.96114C18.9592 4.64544 19.3861 4.41943 19.8453 4.2831C20.3045 4.14678 20.7279 4.07861 21.1153 4.07861H26.163C26.8805 4.07861 27.4903 4.20776 27.9926 4.46607C28.4948 4.72437 28.9002 5.05083 29.2088 5.44546C29.5173 5.83291 29.7397 6.25624 29.876 6.71544C30.0195 7.17464 30.0913 7.60156 30.0913 7.99618V11.7846ZM27.293 8.01771C27.293 7.63026 27.1962 7.34325 27.0024 7.1567C26.8087 6.97015 26.5289 6.87688 26.163 6.87688H21.1368C20.7637 6.87688 20.4803 6.97374 20.2866 7.16747C20.0929 7.35402 19.996 7.63026 19.996 7.99618V11.7846C19.996 12.1505 20.0929 12.4304 20.2866 12.6241C20.4803 12.8178 20.7637 12.9147 21.1368 12.9147H26.163C26.5432 12.9147 26.8267 12.8178 27.0132 12.6241C27.1998 12.4304 27.293 12.1505 27.293 11.7846V8.01771Z" fill="#1DDE6A"/>
<path d="M15.4227 11.1717C15.4227 11.7242 15.351 12.2229 15.2075 12.6677C15.0712 13.1054 14.8882 13.4929 14.6586 13.8301C14.429 14.1673 14.1599 14.4543 13.8514 14.6911C13.5429 14.9279 13.2236 15.1216 12.8935 15.2723C12.5635 15.4229 12.2263 15.5342 11.8819 15.6059C11.5446 15.6777 11.2253 15.7135 10.924 15.7135H0.129151V12.9153H10.924C11.4621 12.9153 11.8783 12.7574 12.1724 12.4417C12.4738 12.126 12.6245 11.7027 12.6245 11.1717C12.6245 10.9134 12.585 10.6767 12.5061 10.4614C12.4272 10.2462 12.3124 10.0596 12.1617 9.90175C12.0182 9.7439 11.8388 9.62193 11.6236 9.53582C11.4155 9.44972 11.1823 9.40667 10.924 9.40667H4.48798C4.03596 9.40667 3.54805 9.32775 3.02428 9.1699C2.5005 9.00487 2.0126 8.74298 1.56057 8.38423C1.11572 8.02548 0.742616 7.55551 0.441265 6.97434C0.147088 6.39316 0 5.68283 0 4.84335C0 4.00387 0.147088 3.29713 0.441265 2.72313C0.742616 2.14195 1.11572 1.67199 1.56057 1.31323C2.0126 0.947308 2.5005 0.685419 3.02428 0.527568C3.54805 0.362542 4.03596 0.280029 4.48798 0.280029H14.0128V3.07829H4.48798C3.95703 3.07829 3.54088 3.23973 3.23953 3.56261C2.94535 3.88548 2.79826 4.3124 2.79826 4.84335C2.79826 5.38148 2.94535 5.80839 3.23953 6.1241C3.54088 6.43262 3.95703 6.58688 4.48798 6.58688H10.924H10.9455C11.2469 6.59406 11.5662 6.63711 11.9034 6.71604C12.2406 6.78779 12.5742 6.90259 12.9043 7.06044C13.2415 7.21829 13.5608 7.41919 13.8622 7.66314C14.1635 7.89992 14.429 8.18692 14.6586 8.52415C14.8954 8.86137 15.0819 9.24882 15.2182 9.6865C15.3546 10.1242 15.4227 10.6193 15.4227 11.1717Z" fill="#1DDE6A"/>
</g>
</svg>
