<svg viewBox="0 0 20 20" fill="none" xmlns="http://www.w3.org/2000/svg">
<g clip-path="url(#clip0_1154_996)">
<path d="M16.3016 5.83333C16.4922 4.74603 15.6555 3.75 14.5516 3.75H5.44843C4.34456 3.75 3.50789 4.74603 3.69841 5.83333" stroke="currentColor" stroke-width="1.5"/>
<path d="M14.5833 3.75008C14.6069 3.53418 14.6187 3.42621 14.6189 3.33704C14.6208 2.48402 13.9783 1.76728 13.1301 1.67626C13.0415 1.66675 12.9329 1.66675 12.7156 1.66675H7.28416C7.06695 1.66675 6.95835 1.66675 6.86969 1.67626C6.02153 1.76728 5.37901 2.48402 5.38086 3.33704C5.38106 3.42621 5.39288 3.53417 5.41653 3.75008" stroke="currentColor" stroke-width="1.5"/>
<path d="M11.6667 11.8751C11.6667 11.4352 11.2254 11.1386 10.3427 10.5454C9.44795 9.94401 9.00058 9.64333 8.66698 9.8641C8.33337 10.0849 8.33337 10.6816 8.33337 11.8751C8.33337 13.0686 8.33337 13.6653 8.66698 13.8861C9.00058 14.1068 9.44795 13.8062 10.3427 13.2048C11.2254 12.6115 11.6667 12.3149 11.6667 11.8751Z" stroke="currentColor" stroke-width="1.5" stroke-linecap="round"/>
<path d="M1.98622 11.4941C1.61453 8.85778 1.42868 7.53963 2.21856 6.68644C3.00843 5.83325 4.41461 5.83325 7.22695 5.83325H12.773C15.5853 5.83325 16.9915 5.83325 17.7814 6.68644C18.5712 7.53963 18.3854 8.85778 18.0137 11.4941L17.6612 13.9941C17.3697 16.0615 17.224 17.0952 16.4763 17.7142C15.7287 18.3333 14.626 18.3333 12.4205 18.3333H7.57943C5.37396 18.3333 4.27123 18.3333 3.52357 17.7142C2.77592 17.0952 2.63018 16.0615 2.33869 13.9941L1.98622 11.4941Z" stroke="currentColor" stroke-width="1.5"/>
</g>
<defs>
<clipPath id="clip0_1154_996">
<rect width="20" height="20" fill="white"/>
</clipPath>
</defs>
</svg>
