<svg  viewBox="0 0 20 20" fill="none" xmlns="http://www.w3.org/2000/svg">
<g clip-path="url(#clip0_1154_38862)">
<path d="M15.834 6.66667V5.83333C15.834 5.05676 15.834 3.83515 15.7071 3.52886C15.538 3.12048 15.2135 2.79602 14.8051 2.62687C14.4988 2.5 14.1106 2.5 13.334 2.5M15.834 6.66667L16.6673 5.83333M15.834 6.66667L15.0007 5.83333" stroke="currentColor" stroke-width="1.5" stroke-linecap="round" stroke-linejoin="round"/>
<path d="M4.16732 13.3334V14.1667C4.16732 14.9433 4.16732 16.1649 4.29419 16.4712C4.46334 16.8796 4.7878 17.204 5.19618 17.3732C5.50246 17.5 5.89075 17.5 6.66732 17.5M4.16732 13.3334L3.33398 14.1667M4.16732 13.3334L5.00065 14.1667" stroke="currentColor" stroke-width="1.5" stroke-linecap="round" stroke-linejoin="round"/>
<path d="M5.91602 9.16663C5.91602 9.58084 6.2518 9.91663 6.66602 9.91663C7.08023 9.91663 7.41602 9.58084 7.41602 9.16663H6.66602H5.91602ZM7.91602 5.54163C7.91602 5.95584 8.2518 6.29163 8.66602 6.29163C9.08023 6.29163 9.41602 5.95584 9.41602 5.54163H8.66602H7.91602ZM3.91602 5.54163C3.91602 5.95584 4.2518 6.29163 4.66602 6.29163C5.08023 6.29163 5.41602 5.95584 5.41602 5.54163H4.66602H3.91602ZM8.51957 4.32934L9.07704 3.82762L9.07704 3.82762L8.51957 4.32934ZM5.41602 8.41663C5.0018 8.41663 4.66602 8.75241 4.66602 9.16663C4.66602 9.58084 5.0018 9.91663 5.41602 9.91663V9.16663V8.41663ZM8.16602 9.91663C8.58023 9.91663 8.91602 9.58084 8.91602 9.16663C8.91602 8.75241 8.58023 8.41663 8.16602 8.41663V9.16663V9.91663ZM5.66602 4.16663V4.91663H6.66602V4.16663V3.41663H5.66602V4.16663ZM6.66602 4.16663V4.91663H7.66602V4.16663V3.41663H6.66602V4.16663ZM6.66602 9.16663H7.41602V4.16663H6.66602H5.91602V9.16663H6.66602ZM8.66602 5.27774H7.91602V5.54163H8.66602H9.41602V5.27774H8.66602ZM4.66602 5.27774H3.91602V5.54163H4.66602H5.41602V5.27774H4.66602ZM7.66602 4.16663V4.91663C7.78696 4.91663 7.87864 4.91669 7.95664 4.91887C8.03502 4.92107 8.07903 4.92503 8.10384 4.92873C8.12762 4.93229 8.11233 4.93267 8.0789 4.91738C8.03923 4.89925 7.99679 4.86961 7.9621 4.83107L8.51957 4.32934L9.07704 3.82762C8.84569 3.57056 8.5602 3.48026 8.32546 3.4452C8.1211 3.41467 7.87823 3.41663 7.66602 3.41663V4.16663ZM8.66602 5.27774H9.41602C9.41602 5.03498 9.41731 4.78492 9.39228 4.57805C9.36553 4.357 9.29821 4.07336 9.07704 3.82762L8.51957 4.32934L7.9621 4.83107C7.88738 4.74804 7.89328 4.67671 7.90314 4.75824C7.90802 4.79854 7.91186 4.85764 7.91392 4.94849C7.91598 5.03898 7.91602 5.14428 7.91602 5.27774H8.66602ZM5.66602 4.16663V3.41663C5.4538 3.41663 5.21093 3.41467 5.00657 3.4452C4.77183 3.48026 4.48634 3.57056 4.25499 3.82762L4.81246 4.32934L5.36993 4.83107C5.33524 4.86961 5.29281 4.89925 5.25313 4.91738C5.2197 4.93267 5.20441 4.93229 5.22819 4.92873C5.253 4.92503 5.29701 4.92107 5.37539 4.91887C5.45339 4.91669 5.54507 4.91663 5.66602 4.91663V4.16663ZM4.66602 5.27774H5.41602C5.41602 5.14428 5.41606 5.03898 5.41811 4.94849C5.42017 4.85764 5.42401 4.79854 5.42889 4.75824C5.43876 4.67671 5.44466 4.74804 5.36993 4.83107L4.81246 4.32934L4.25499 3.82762C4.03382 4.07336 3.9665 4.357 3.93975 4.57805C3.91472 4.78492 3.91602 5.03498 3.91602 5.27774H4.66602ZM5.41602 9.16663V9.91663H8.16602V9.16663V8.41663H5.41602V9.16663Z" fill="currentColor"/>
<path d="M8.33268 11.6522C7.85351 11.6666 7.30277 11.6666 6.66602 11.6666C4.30899 11.6666 3.13048 11.6666 2.39825 10.9344C1.66602 10.2022 1.66602 9.02365 1.66602 6.66663C1.66602 4.3096 1.66602 3.13109 2.39825 2.39886C3.13048 1.66663 4.30899 1.66663 6.66602 1.66663C9.02304 1.66663 10.2015 1.66663 10.9338 2.39886C11.666 3.13109 11.666 4.3096 11.666 6.66663C11.666 7.33697 11.666 7.91199 11.6492 8.40854" stroke="currentColor" stroke-width="1.5"/>
<path d="M8.33398 13.3334C8.33398 10.9764 8.33398 9.79784 9.06622 9.06561C9.79845 8.33337 10.977 8.33337 13.334 8.33337C15.691 8.33337 16.8695 8.33337 17.6018 9.06561C18.334 9.79784 18.334 10.9764 18.334 13.3334C18.334 15.6904 18.334 16.8689 17.6018 17.6011C16.8695 18.3334 15.691 18.3334 13.334 18.3334C10.977 18.3334 9.79845 18.3334 9.06622 17.6011C8.33398 16.8689 8.33398 15.6904 8.33398 13.3334Z" stroke="currentColor" stroke-width="1.5"/>
<path d="M14.834 13.3334C14.834 13.0167 14.503 12.8031 13.841 12.376C13.1699 11.943 12.8344 11.7265 12.5842 11.8855C12.334 12.0444 12.334 12.4741 12.334 13.3334C12.334 14.1927 12.334 14.6223 12.5842 14.7813C12.8344 14.9402 13.1699 14.7237 13.841 14.2908C14.503 13.8636 14.834 13.6501 14.834 13.3334Z" stroke="currentColor" stroke-width="1.5" stroke-linecap="round"/>
</g>
<defs>
</defs>
</svg>
