<svg viewBox="0 0 20 20" fill="none" xmlns="http://www.w3.org/2000/svg">
<path d="M13.8995 4.61252C13.2683 3.912 12.8889 2.99857 12.8889 2H12.0981M13.8995 4.61252C14.4746 5.25118 15.2534 5.71564 16.1403 5.89751C16.4159 5.95557 16.7034 5.98657 17.003 5.98657V8.85062C15.4692 8.85062 14.0471 8.37462 12.8887 7.56954V13.3945C12.8887 16.3051 10.4442 18.67 7.4444 18.67C5.87457 18.67 4.45656 18.0197 3.46195 16.9863C2.55523 16.042 2 14.7801 2 13.3945C2 10.5265 4.37268 8.18881 7.31257 8.12688M13.8995 4.61252C13.8841 4.60282 13.8688 4.59303 13.8536 4.58313M5.43126 14.7956C5.13568 14.4009 4.95992 13.9171 4.95992 13.3907C4.95992 12.0632 6.07436 10.9833 7.44447 10.9833C7.70011 10.9833 7.94773 11.0258 8.17941 11.0955V8.1695C7.93974 8.1385 7.6961 8.11913 7.44447 8.11913C7.40051 8.11913 7.04658 8.14193 7.00264 8.14193M12.0938 2H9.92889L9.92493 13.4835C9.87698 14.7686 8.78248 15.802 7.4444 15.802C6.61355 15.802 5.88256 15.4033 5.4272 14.7996" stroke="currentColor" stroke-width="1.5" stroke-linejoin="round"/>
</svg>
