<svg  viewBox="0 0 20 20" fill="none" xmlns="http://www.w3.org/2000/svg">
<path d="M10 3.33337L10 16.6667" stroke="currentColor" stroke-width="1.5" stroke-linecap="round"/>
<path d="M6.66602 5.83337L6.66602 14.1667" stroke="currentColor" stroke-width="1.5" stroke-linecap="round"/>
<path d="M16.666 9.16663L16.666 10.8333" stroke="currentColor" stroke-width="1.5" stroke-linecap="round"/>
<path d="M3.33398 9.16663L3.33398 10.8333" stroke="currentColor" stroke-width="1.5" stroke-linecap="round"/>
<path d="M12.584 2.74939C12.9793 2.29502 13.6937 2.29475 14.0889 2.74939L14.168 2.85291L14.71 3.66541L15.5234 4.20837C16.117 4.6041 16.1168 5.47648 15.5234 5.87244L14.71 6.41443L14.0859 7.35095V14.8265C14.0859 15.2408 13.7502 15.5765 13.3359 15.5765C12.9218 15.5765 12.5859 15.2407 12.5859 14.8265V7.35095L11.9609 6.41443L11.1484 5.87244C10.5553 5.47649 10.5551 4.60414 11.1484 4.20837L11.9609 3.66541L12.5039 2.85291L12.584 2.74939ZM13.1543 4.58142C13.0811 4.69115 12.9866 4.78556 12.877 4.85876L12.6045 5.04041L12.877 5.22205C12.9866 5.29516 13.0811 5.38977 13.1543 5.49939L13.3359 5.77185L13.5176 5.49939C13.5908 5.38976 13.6853 5.29517 13.7949 5.22205L14.0674 5.04041L13.7949 4.85876C13.6852 4.78557 13.5907 4.69114 13.5176 4.58142L13.3359 4.30896L13.1543 4.58142Z" fill="currentColor"/>
</svg>
